<svg width="1200" height="520" viewBox="0 0 1200 520" fill="none" xmlns="http://www.w3.org/2000/svg">
  <defs>
    <linearGradient id="bg" x1="0" y1="0" x2="1200" y2="520" gradientUnits="userSpaceOnUse">
      <stop stop-color="#0F172A"/>
      <stop offset="1" stop-color="#1E293B"/>
    </linearGradient>
    <linearGradient id="accent" x1="0" y1="0" x2="1" y2="1">
      <stop stop-color="#60A5FA"/>
      <stop offset="1" stop-color="#34D399"/>
    </linearGradient>
  </defs>
  <rect width="1200" height="520" rx="30" fill="url(#bg)"/>
  <circle cx="970" cy="130" r="150" fill="#1D4ED8" fill-opacity="0.2"/>
  <circle cx="1100" cy="350" r="180" fill="#10B981" fill-opacity="0.12"/>
  <rect x="78" y="80" width="520" height="360" rx="24" fill="#111827" fill-opacity="0.78" stroke="#334155"/>
  <text x="110" y="150" fill="#E2E8F0" font-family="Segoe UI, Arial, sans-serif" font-size="28" font-weight="600">Designing Trust</text>
  <text x="110" y="205" fill="#F8FAFC" font-family="Segoe UI, Arial, sans-serif" font-size="52" font-weight="700">Service Design</text>
  <text x="110" y="260" fill="#8BE9FD" font-family="Segoe UI, Arial, sans-serif" font-size="44" font-weight="700">Risk &amp; Fraud</text>
  <text x="110" y="320" fill="#CBD5E1" font-family="Segoe UI, Arial, sans-serif" font-size="24">Financing journey in a digital banking app</text>

  <g>
    <rect x="660" y="118" width="180" height="90" rx="18" fill="#111827" stroke="#475569"/>
    <text x="687" y="155" fill="#F8FAFC" font-family="Segoe UI, Arial, sans-serif" font-size="24" font-weight="600">UX</text>
    <text x="687" y="180" fill="#BFDBFE" font-family="Segoe UI, Arial, sans-serif" font-size="18">Research</text>
  </g>
  <g>
    <rect x="862" y="118" width="180" height="90" rx="18" fill="#111827" stroke="#475569"/>
    <text x="890" y="155" fill="#F8FAFC" font-family="Segoe UI, Arial, sans-serif" font-size="24" font-weight="600">Risk</text>
    <text x="890" y="180" fill="#A7F3D0" font-family="Segoe UI, Arial, sans-serif" font-size="18">Decision</text>
  </g>
  <g>
    <rect x="660" y="238" width="180" height="90" rx="18" fill="#111827" stroke="#475569"/>
    <text x="685" y="275" fill="#F8FAFC" font-family="Segoe UI, Arial, sans-serif" font-size="24" font-weight="600">Trust</text>
    <text x="685" y="300" fill="#FDE68A" font-family="Segoe UI, Arial, sans-serif" font-size="18">Experience</text>
  </g>
  <g>
    <rect x="862" y="238" width="180" height="90" rx="18" fill="#111827" stroke="#475569"/>
    <text x="884" y="275" fill="#F8FAFC" font-family="Segoe UI, Arial, sans-serif" font-size="24" font-weight="600">Ops</text>
    <text x="884" y="300" fill="#C4B5FD" font-family="Segoe UI, Arial, sans-serif" font-size="18">Support</text>
  </g>

  <rect x="610" y="360" width="390" height="58" rx="29" fill="url(#accent)"/>
  <text x="700" y="398" fill="#0F172A" font-family="Segoe UI, Arial, sans-serif" font-size="28" font-weight="700">Balance: Security + Experience</text>
</svg>
